<mxfile host="65bd71144e">
    <diagram id="k5TNOZ9Fhg_7s_N_ojaN" name="Page-1">
        <mxGraphModel dx="959" dy="820" grid="1" gridSize="10" guides="1" tooltips="1" connect="1" arrows="1" fold="1" page="1" pageScale="1" pageWidth="827" pageHeight="1169" math="0" shadow="0">
            <root>
                <mxCell id="0"/>
                <mxCell id="1" parent="0"/>
                <mxCell id="56" value="&quot;e&quot;" style="text;html=1;align=center;verticalAlign=middle;whiteSpace=wrap;rounded=0;fontStyle=1" parent="1" vertex="1">
                    <mxGeometry x="680" y="400" width="60" height="30" as="geometry"/>
                </mxCell>
                <mxCell id="57" value="&quot;ein&quot;" style="text;html=1;align=center;verticalAlign=middle;whiteSpace=wrap;rounded=0;fontStyle=1" parent="1" vertex="1">
                    <mxGeometry x="720" y="580" width="60" height="30" as="geometry"/>
                </mxCell>
                <mxCell id="58" value="&quot;en&quot;" style="text;html=1;align=center;verticalAlign=middle;whiteSpace=wrap;rounded=0;fontStyle=1" parent="1" vertex="1">
                    <mxGeometry x="857" y="580" width="60" height="30" as="geometry"/>
                </mxCell>
                <mxCell id="59" value="&quot;Brief&quot;" style="text;html=1;align=center;verticalAlign=middle;whiteSpace=wrap;rounded=0;fontStyle=1" parent="1" vertex="1">
                    <mxGeometry x="940" y="480" width="60" height="30" as="geometry"/>
                </mxCell>
                <mxCell id="61" value="&quot;schrieb&quot;" style="text;html=1;align=center;verticalAlign=middle;whiteSpace=wrap;rounded=0;fontStyle=1" parent="1" vertex="1">
                    <mxGeometry x="1160" y="580" width="60" height="30" as="geometry"/>
                </mxCell>
                <mxCell id="62" value="&quot;en&quot;" style="text;html=1;align=center;verticalAlign=middle;whiteSpace=wrap;rounded=0;fontStyle=1" parent="1" vertex="1">
                    <mxGeometry x="1320" y="580" width="60" height="30" as="geometry"/>
                </mxCell>
                <mxCell id="22" style="edgeStyle=none;html=1;exitX=0;exitY=0.5;exitDx=0;exitDy=0;entryX=1;entryY=0;entryDx=0;entryDy=0;startArrow=classic;startFill=1;endArrow=none;endFill=0;" parent="1" source="2" target="3" edge="1">
                    <mxGeometry relative="1" as="geometry"/>
                </mxCell>
                <mxCell id="28" style="edgeStyle=none;html=1;exitX=1;exitY=0.5;exitDx=0;exitDy=0;entryX=0;entryY=0;entryDx=0;entryDy=0;startArrow=classic;startFill=1;endArrow=none;endFill=0;" parent="1" source="2" target="7" edge="1">
                    <mxGeometry relative="1" as="geometry"/>
                </mxCell>
                <mxCell id="2" value="&amp;lt;Sentence&amp;gt;" style="ellipse;whiteSpace=wrap;html=1;fontStyle=1" parent="1" vertex="1">
                    <mxGeometry x="490" y="70" width="120" height="50" as="geometry"/>
                </mxCell>
                <mxCell id="23" style="edgeStyle=none;html=1;exitX=0;exitY=1;exitDx=0;exitDy=0;entryX=0.5;entryY=0;entryDx=0;entryDy=0;startArrow=classic;startFill=1;endArrow=none;endFill=0;" parent="1" source="3" target="4" edge="1">
                    <mxGeometry relative="1" as="geometry"/>
                </mxCell>
                <mxCell id="27" style="edgeStyle=none;html=1;exitX=1;exitY=1;exitDx=0;exitDy=0;entryX=0.5;entryY=0;entryDx=0;entryDy=0;startArrow=classic;startFill=1;endArrow=none;endFill=0;" parent="1" source="3" target="26" edge="1">
                    <mxGeometry relative="1" as="geometry"/>
                </mxCell>
                <mxCell id="3" value="&amp;lt;NP_subj&amp;gt;" style="ellipse;whiteSpace=wrap;html=1;" parent="1" vertex="1">
                    <mxGeometry x="240" y="150" width="120" height="50" as="geometry"/>
                </mxCell>
                <mxCell id="24" style="edgeStyle=none;html=1;exitX=0;exitY=1;exitDx=0;exitDy=0;entryX=0.5;entryY=0;entryDx=0;entryDy=0;startArrow=classic;startFill=1;endArrow=none;endFill=0;" parent="1" source="4" target="5" edge="1">
                    <mxGeometry relative="1" as="geometry"/>
                </mxCell>
                <mxCell id="25" style="edgeStyle=none;html=1;exitX=1;exitY=1;exitDx=0;exitDy=0;entryX=0.5;entryY=0;entryDx=0;entryDy=0;startArrow=classic;startFill=1;endArrow=none;endFill=0;" parent="1" source="4" target="6" edge="1">
                    <mxGeometry relative="1" as="geometry"/>
                </mxCell>
                <mxCell id="4" value="&amp;lt;PronP&amp;gt;" style="ellipse;whiteSpace=wrap;html=1;" parent="1" vertex="1">
                    <mxGeometry x="100" y="230" width="120" height="50" as="geometry"/>
                </mxCell>
                <mxCell id="43" style="edgeStyle=none;html=1;exitX=0.5;exitY=1;exitDx=0;exitDy=0;startArrow=classic;startFill=1;endArrow=none;endFill=0;" parent="1" source="5" edge="1">
                    <mxGeometry relative="1" as="geometry">
                        <mxPoint x="60" y="400" as="targetPoint"/>
                    </mxGeometry>
                </mxCell>
                <mxCell id="5" value="&amp;lt;PronStem&amp;gt;" style="ellipse;whiteSpace=wrap;html=1;perimeter=rectanglePerimeter;" parent="1" vertex="1">
                    <mxGeometry y="310" width="120" height="50" as="geometry"/>
                </mxCell>
                <mxCell id="44" style="edgeStyle=none;html=1;exitX=0.5;exitY=1;exitDx=0;exitDy=0;startArrow=classic;startFill=1;endArrow=none;endFill=0;" parent="1" source="6" edge="1">
                    <mxGeometry relative="1" as="geometry">
                        <mxPoint x="250" y="400" as="targetPoint"/>
                    </mxGeometry>
                </mxCell>
                <mxCell id="6" value="&amp;lt;PronAgr&amp;gt;" style="ellipse;whiteSpace=wrap;html=1;perimeter=rectanglePerimeter;" parent="1" vertex="1">
                    <mxGeometry x="190" y="310" width="120" height="50" as="geometry"/>
                </mxCell>
                <mxCell id="29" style="edgeStyle=none;html=1;exitX=0;exitY=0.5;exitDx=0;exitDy=0;entryX=1;entryY=0;entryDx=0;entryDy=0;startArrow=classic;startFill=1;endArrow=none;endFill=0;" parent="1" source="7" target="8" edge="1">
                    <mxGeometry relative="1" as="geometry"/>
                </mxCell>
                <mxCell id="30" style="edgeStyle=none;html=1;exitX=1;exitY=0.5;exitDx=0;exitDy=0;entryX=0;entryY=0;entryDx=0;entryDy=0;startArrow=classic;startFill=1;endArrow=none;endFill=0;" parent="1" source="7" target="9" edge="1">
                    <mxGeometry relative="1" as="geometry"/>
                </mxCell>
                <mxCell id="7" value="&amp;lt;VP_fin&amp;gt;" style="ellipse;whiteSpace=wrap;html=1;" parent="1" vertex="1">
                    <mxGeometry x="730" y="150" width="120" height="50" as="geometry"/>
                </mxCell>
                <mxCell id="31" style="edgeStyle=none;html=1;exitX=1;exitY=1;exitDx=0;exitDy=0;entryX=0.5;entryY=0;entryDx=0;entryDy=0;startArrow=classic;startFill=1;endArrow=none;endFill=0;" parent="1" source="8" target="11" edge="1">
                    <mxGeometry relative="1" as="geometry"/>
                </mxCell>
                <mxCell id="32" style="edgeStyle=none;html=1;exitX=0;exitY=1;exitDx=0;exitDy=0;entryX=0.5;entryY=0;entryDx=0;entryDy=0;startArrow=classic;startFill=1;endArrow=none;endFill=0;" parent="1" source="8" target="10" edge="1">
                    <mxGeometry relative="1" as="geometry"/>
                </mxCell>
                <mxCell id="8" value="&amp;lt;AuxFin [past]&amp;gt;" style="ellipse;whiteSpace=wrap;html=1;" parent="1" vertex="1">
                    <mxGeometry x="530" y="230" width="120" height="50" as="geometry"/>
                </mxCell>
                <mxCell id="33" style="edgeStyle=none;html=1;exitX=0;exitY=0.5;exitDx=0;exitDy=0;entryX=0.5;entryY=0;entryDx=0;entryDy=0;startArrow=classic;startFill=1;endArrow=none;endFill=0;" parent="1" source="9" target="12" edge="1">
                    <mxGeometry relative="1" as="geometry"/>
                </mxCell>
                <mxCell id="34" style="edgeStyle=none;html=1;exitX=1;exitY=0.5;exitDx=0;exitDy=0;entryX=0.5;entryY=0;entryDx=0;entryDy=0;startArrow=classic;startFill=1;endArrow=none;endFill=0;" parent="1" source="9" target="13" edge="1">
                    <mxGeometry relative="1" as="geometry"/>
                </mxCell>
                <mxCell id="9" value="&amp;lt;VP_part&amp;gt;" style="ellipse;whiteSpace=wrap;html=1;" parent="1" vertex="1">
                    <mxGeometry x="980" y="230" width="120" height="50" as="geometry"/>
                </mxCell>
                <mxCell id="45" style="edgeStyle=none;html=1;exitX=0.5;exitY=1;exitDx=0;exitDy=0;startArrow=classic;startFill=1;endArrow=none;endFill=0;" parent="1" source="10" edge="1">
                    <mxGeometry relative="1" as="geometry">
                        <mxPoint x="470" y="400" as="targetPoint"/>
                    </mxGeometry>
                </mxCell>
                <mxCell id="10" value="&amp;lt;AuxRoot&amp;gt;" style="ellipse;whiteSpace=wrap;html=1;perimeter=rectanglePerimeter;" parent="1" vertex="1">
                    <mxGeometry x="410" y="310" width="120" height="50" as="geometry"/>
                </mxCell>
                <mxCell id="46" style="edgeStyle=none;html=1;exitX=0.5;exitY=1;exitDx=0;exitDy=0;startArrow=classic;startFill=1;endArrow=none;endFill=0;" parent="1" source="11" edge="1">
                    <mxGeometry relative="1" as="geometry">
                        <mxPoint x="710" y="400" as="targetPoint"/>
                    </mxGeometry>
                </mxCell>
                <mxCell id="11" value="&amp;lt;FinMor&amp;gt;" style="ellipse;whiteSpace=wrap;html=1;perimeter=rectanglePerimeter;" parent="1" vertex="1">
                    <mxGeometry x="650" y="310" width="120" height="50" as="geometry"/>
                </mxCell>
                <mxCell id="36" style="edgeStyle=none;html=1;exitX=1;exitY=1;exitDx=0;exitDy=0;entryX=0.5;entryY=0;entryDx=0;entryDy=0;startArrow=classic;startFill=1;endArrow=none;endFill=0;" parent="1" source="12" target="19" edge="1">
                    <mxGeometry relative="1" as="geometry"/>
                </mxCell>
                <mxCell id="12" value="&amp;lt;NP_obj&amp;gt;" style="ellipse;whiteSpace=wrap;html=1;" parent="1" vertex="1">
                    <mxGeometry x="850" y="310" width="120" height="50" as="geometry"/>
                </mxCell>
                <mxCell id="37" style="edgeStyle=none;html=1;exitX=0;exitY=1;exitDx=0;exitDy=0;entryX=0.5;entryY=0;entryDx=0;entryDy=0;startArrow=classic;startFill=1;endArrow=none;endFill=0;" parent="1" source="13" target="14" edge="1">
                    <mxGeometry relative="1" as="geometry"/>
                </mxCell>
                <mxCell id="38" style="edgeStyle=none;html=1;exitX=1;exitY=1;exitDx=0;exitDy=0;entryX=0.5;entryY=0;entryDx=0;entryDy=0;startArrow=classic;startFill=1;endArrow=none;endFill=0;" parent="1" source="13" target="15" edge="1">
                    <mxGeometry relative="1" as="geometry"/>
                </mxCell>
                <mxCell id="13" value="&amp;lt;V-Part&amp;gt;" style="ellipse;whiteSpace=wrap;html=1;" parent="1" vertex="1">
                    <mxGeometry x="1110" y="310" width="120" height="50" as="geometry"/>
                </mxCell>
                <mxCell id="49" style="edgeStyle=none;html=1;exitX=0.5;exitY=1;exitDx=0;exitDy=0;startArrow=classic;startFill=1;endArrow=none;endFill=0;" parent="1" source="14" edge="1">
                    <mxGeometry relative="1" as="geometry">
                        <mxPoint x="1100" y="480" as="targetPoint"/>
                    </mxGeometry>
                </mxCell>
                <mxCell id="14" value="&amp;lt;PartPrefix&amp;gt;" style="ellipse;whiteSpace=wrap;html=1;perimeter=rectanglePerimeter;" parent="1" vertex="1">
                    <mxGeometry x="1040" y="390" width="120" height="50" as="geometry"/>
                </mxCell>
                <mxCell id="39" style="edgeStyle=none;html=1;exitX=0.5;exitY=1;exitDx=0;exitDy=0;entryX=0.5;entryY=0;entryDx=0;entryDy=0;startArrow=classic;startFill=1;endArrow=none;endFill=0;" parent="1" source="15" target="16" edge="1">
                    <mxGeometry relative="1" as="geometry"/>
                </mxCell>
                <mxCell id="40" style="edgeStyle=none;html=1;exitX=0.5;exitY=1;exitDx=0;exitDy=0;entryX=0.5;entryY=0;entryDx=0;entryDy=0;startArrow=classic;startFill=1;endArrow=none;endFill=0;" parent="1" source="15" target="17" edge="1">
                    <mxGeometry relative="1" as="geometry"/>
                </mxCell>
                <mxCell id="15" value="&amp;lt;PartBody&amp;gt;" style="ellipse;whiteSpace=wrap;html=1;" parent="1" vertex="1">
                    <mxGeometry x="1220" y="390" width="120" height="50" as="geometry"/>
                </mxCell>
                <mxCell id="50" style="edgeStyle=none;html=1;exitX=0.5;exitY=1;exitDx=0;exitDy=0;startArrow=classic;startFill=1;endArrow=none;endFill=0;" parent="1" source="16" edge="1">
                    <mxGeometry relative="1" as="geometry">
                        <mxPoint x="1190" y="580" as="targetPoint"/>
                    </mxGeometry>
                </mxCell>
                <mxCell id="16" value="&amp;lt;VStem&amp;gt;" style="ellipse;whiteSpace=wrap;html=1;perimeter=rectanglePerimeter;" parent="1" vertex="1">
                    <mxGeometry x="1130" y="490" width="120" height="50" as="geometry"/>
                </mxCell>
                <mxCell id="51" style="edgeStyle=none;html=1;exitX=0.5;exitY=1;exitDx=0;exitDy=0;startArrow=classic;startFill=1;endArrow=none;endFill=0;" parent="1" source="17" edge="1">
                    <mxGeometry relative="1" as="geometry">
                        <mxPoint x="1350" y="580" as="targetPoint"/>
                    </mxGeometry>
                </mxCell>
                <mxCell id="17" value="&amp;lt;PartSuf&amp;gt;" style="ellipse;whiteSpace=wrap;html=1;perimeter=rectanglePerimeter;" parent="1" vertex="1">
                    <mxGeometry x="1290" y="490" width="120" height="50" as="geometry"/>
                </mxCell>
                <mxCell id="41" style="edgeStyle=none;html=1;exitX=0.5;exitY=1;exitDx=0;exitDy=0;entryX=0.5;entryY=0;entryDx=0;entryDy=0;startArrow=classic;startFill=1;endArrow=none;endFill=0;" parent="1" source="18" target="21" edge="1">
                    <mxGeometry relative="1" as="geometry"/>
                </mxCell>
                <mxCell id="42" style="edgeStyle=none;html=1;exitX=0.5;exitY=1;exitDx=0;exitDy=0;entryX=0.5;entryY=0;entryDx=0;entryDy=0;startArrow=classic;startFill=1;endArrow=none;endFill=0;" parent="1" source="18" target="20" edge="1">
                    <mxGeometry relative="1" as="geometry"/>
                </mxCell>
                <mxCell id="18" value="&amp;lt;Det&amp;gt;" style="ellipse;whiteSpace=wrap;html=1;" parent="1" vertex="1">
                    <mxGeometry x="760" y="390" width="120" height="50" as="geometry"/>
                </mxCell>
                <mxCell id="52" style="edgeStyle=none;html=1;exitX=0.5;exitY=1;exitDx=0;exitDy=0;startArrow=classic;startFill=1;endArrow=none;endFill=0;" parent="1" source="19" edge="1">
                    <mxGeometry relative="1" as="geometry">
                        <mxPoint x="970" y="480" as="targetPoint"/>
                    </mxGeometry>
                </mxCell>
                <mxCell id="19" value="&amp;lt;N&amp;gt;" style="ellipse;whiteSpace=wrap;html=1;perimeter=rectanglePerimeter;" parent="1" vertex="1">
                    <mxGeometry x="910" y="390" width="120" height="50" as="geometry"/>
                </mxCell>
                <mxCell id="47" style="edgeStyle=none;html=1;exitX=0.5;exitY=1;exitDx=0;exitDy=0;startArrow=classic;startFill=1;endArrow=none;endFill=0;" parent="1" source="20" edge="1">
                    <mxGeometry relative="1" as="geometry">
                        <mxPoint x="750" y="580" as="targetPoint"/>
                    </mxGeometry>
                </mxCell>
                <mxCell id="20" value="&amp;lt;DetStem&amp;gt;" style="ellipse;whiteSpace=wrap;html=1;perimeter=rectanglePerimeter;" parent="1" vertex="1">
                    <mxGeometry x="690" y="490" width="120" height="50" as="geometry"/>
                </mxCell>
                <mxCell id="48" style="edgeStyle=none;html=1;exitX=0.5;exitY=1;exitDx=0;exitDy=0;startArrow=classic;startFill=1;endArrow=none;endFill=0;" parent="1" source="21" edge="1">
                    <mxGeometry relative="1" as="geometry">
                        <mxPoint x="887" y="580" as="targetPoint"/>
                    </mxGeometry>
                </mxCell>
                <mxCell id="21" value="&amp;lt;DetInfl&amp;gt;" style="ellipse;whiteSpace=wrap;html=1;perimeter=rectanglePerimeter;" parent="1" vertex="1">
                    <mxGeometry x="827" y="490" width="120" height="50" as="geometry"/>
                </mxCell>
                <mxCell id="26" value="&amp;lt;Empty&amp;gt;" style="ellipse;whiteSpace=wrap;html=1;perimeter=rectanglePerimeter;" parent="1" vertex="1">
                    <mxGeometry x="360" y="230" width="120" height="50" as="geometry"/>
                </mxCell>
                <mxCell id="35" style="edgeStyle=none;html=1;exitX=0;exitY=1;exitDx=0;exitDy=0;entryX=0.578;entryY=-0.016;entryDx=0;entryDy=0;entryPerimeter=0;startArrow=classic;startFill=1;endArrow=none;endFill=0;" parent="1" source="12" target="18" edge="1">
                    <mxGeometry relative="1" as="geometry"/>
                </mxCell>
                <mxCell id="53" value="&quot;e&quot;" style="text;html=1;align=center;verticalAlign=middle;whiteSpace=wrap;rounded=0;fontStyle=1" parent="1" vertex="1">
                    <mxGeometry x="30" y="400" width="60" height="30" as="geometry"/>
                </mxCell>
                <mxCell id="54" value="&quot;r&quot;" style="text;html=1;align=center;verticalAlign=middle;whiteSpace=wrap;rounded=0;fontStyle=1" parent="1" vertex="1">
                    <mxGeometry x="220" y="400" width="60" height="30" as="geometry"/>
                </mxCell>
                <mxCell id="55" value="&quot;hatt&quot;" style="text;html=1;align=center;verticalAlign=middle;whiteSpace=wrap;rounded=0;fontStyle=1" parent="1" vertex="1">
                    <mxGeometry x="440" y="400" width="60" height="30" as="geometry"/>
                </mxCell>
                <mxCell id="60" value="&quot;ge&quot;" style="text;html=1;align=center;verticalAlign=middle;whiteSpace=wrap;rounded=0;fontStyle=1" parent="1" vertex="1">
                    <mxGeometry x="1070" y="480" width="60" height="30" as="geometry"/>
                </mxCell>
            </root>
        </mxGraphModel>
    </diagram>
</mxfile>